<svg width="19" height="19" viewBox="0 0 19 19" fill="none" xmlns="http://www.w3.org/2000/svg">
<path d="M15.7273 0.698486H3.7273C2.0703 0.698486 0.727301 2.04149 0.727301 3.69849V15.6985C0.727301 17.3555 2.0703 18.6985 3.7273 18.6985H15.7273C17.3843 18.6985 18.7273 17.3555 18.7273 15.6985V3.69849C18.7273 2.04149 17.3843 0.698486 15.7273 0.698486ZM15.6913 12.1725C15.6803 12.6985 15.5793 13.1975 15.4023 13.6585L15.4123 13.6285C15.0933 14.4365 14.4653 15.0645 13.6783 15.3765L13.6573 15.3835C13.2263 15.5505 12.7263 15.6515 12.2053 15.6625H12.2003C11.5603 15.6915 11.3563 15.6985 9.7263 15.6985C8.0963 15.6985 7.8923 15.6915 7.2523 15.6625C6.7263 15.6515 6.2273 15.5505 5.7663 15.3735L5.7963 15.3835C4.9883 15.0645 4.3603 14.4365 4.0483 13.6495L4.0413 13.6285C3.8743 13.1975 3.7733 12.6975 3.7623 12.1765V12.1715C3.7333 11.5315 3.7263 11.3275 3.7263 9.69749C3.7263 8.06749 3.7333 7.86349 3.7623 7.22349C3.7733 6.69749 3.8743 6.19849 4.0513 5.73749L4.0413 5.76749C4.3593 4.95949 4.9883 4.33049 5.7753 4.01949L5.7963 4.01249C6.2273 3.84549 6.7273 3.74449 7.2483 3.73349H7.2533C7.8933 3.70449 8.0973 3.69749 9.7273 3.69749C11.3573 3.69749 11.5613 3.70449 12.2013 3.73349C12.7273 3.74449 13.2263 3.84549 13.6873 4.02249L13.6573 4.01249C14.4653 4.33049 15.0943 4.95949 15.4053 5.74649L15.4123 5.76749C15.5793 6.19849 15.6803 6.69849 15.6913 7.21949V7.22449C15.7203 7.86449 15.7273 8.06849 15.7273 9.69849C15.7273 11.3285 15.7203 11.5325 15.6913 12.1725ZM14.4043 6.15949C14.1983 5.63449 13.7903 5.22749 13.2793 5.02549L13.2663 5.02049C12.9353 4.89449 12.5533 4.81849 12.1543 4.81349H12.1523C11.5193 4.78449 11.3303 4.77849 9.7283 4.77849C8.1263 4.77849 7.9363 4.78449 7.3043 4.81349C6.9033 4.81849 6.5203 4.89349 6.1673 5.02749L6.1903 5.01949C5.6653 5.22549 5.2583 5.63349 5.0563 6.14449L5.0513 6.15749C4.9253 6.48849 4.8493 6.87049 4.8443 7.26949V7.27149C4.8153 7.90449 4.8093 8.09349 4.8093 9.69549C4.8093 11.2975 4.8153 11.4875 4.8443 12.1195C4.8493 12.5205 4.9243 12.9035 5.0583 13.2565L5.0503 13.2335C5.2563 13.7585 5.6643 14.1655 6.1753 14.3675L6.1883 14.3725C6.5193 14.4985 6.9013 14.5745 7.3003 14.5795H7.3023C7.9353 14.6085 8.1243 14.6145 9.7263 14.6145C11.3283 14.6145 11.5183 14.6085 12.1503 14.5795C12.5513 14.5745 12.9343 14.4995 13.2873 14.3655L13.2643 14.3735C13.7893 14.1675 14.1963 13.7595 14.3983 13.2485L14.4033 13.2355C14.5293 12.9045 14.6053 12.5225 14.6103 12.1235V12.1215C14.6393 11.4885 14.6453 11.2995 14.6453 9.69749C14.6453 8.09549 14.6393 7.90549 14.6103 7.27249C14.6053 6.87149 14.5303 6.48949 14.3963 6.13549L14.4043 6.15849V6.15949ZM9.7273 12.7795C8.0253 12.7795 6.6463 11.4005 6.6463 9.69849C6.6463 7.99649 8.0253 6.61749 9.7273 6.61749C11.4293 6.61749 12.8083 7.99649 12.8083 9.69849C12.8083 11.4005 11.4293 12.7795 9.7273 12.7795ZM12.9303 7.21549C12.5323 7.21549 12.2103 6.89349 12.2103 6.49549C12.2103 6.09749 12.5323 5.77549 12.9303 5.77549C13.3283 5.77549 13.6503 6.09749 13.6503 6.49549C13.6503 6.89349 13.3283 7.21549 12.9303 7.21549ZM11.7273 9.69849C11.7273 10.8035 10.8323 11.6985 9.7273 11.6985C8.6223 11.6985 7.7273 10.8035 7.7273 9.69849C7.7273 8.59349 8.6223 7.69849 9.7273 7.69849C10.8323 7.69849 11.7273 8.59349 11.7273 9.69849Z" fill="white"/>
</svg>
