<svg width="19" height="19" viewBox="0 0 19 19" fill="none" xmlns="http://www.w3.org/2000/svg">
<path d="M5.83985 4.79749C5.83985 3.94349 5.14685 3.25049 4.29285 3.25049C3.43885 3.25049 2.74585 3.94349 2.74585 4.79749C2.74585 5.65149 3.43885 6.34449 4.29285 6.34449C5.14585 6.34249 5.83785 5.65149 5.83985 4.79749ZM5.63085 16.1075V7.51949H2.95885V16.1075H5.63085ZM15.6268 11.3995C15.6268 9.08549 15.1248 7.30449 12.4238 7.30449C12.3928 7.30349 12.3568 7.30249 12.3198 7.30249C11.2928 7.30249 10.3938 7.85449 9.90485 8.67749L9.89785 8.69049H9.86085V7.51849H7.30185V16.1065H9.97085V11.8575C9.97085 10.7355 10.1838 9.65049 11.5748 9.65049C12.9408 9.65049 12.9608 10.9325 12.9608 11.9275V16.1065H15.6278L15.6268 11.3995ZM3.18185 0.698486H15.1818C16.8388 0.698486 18.1818 2.04149 18.1818 3.69849V15.6985C18.1818 17.3555 16.8388 18.6985 15.1818 18.6985H3.18185C1.52485 18.6985 0.181847 17.3555 0.181847 15.6985V3.69849C0.181847 2.04149 1.52485 0.698486 3.18185 0.698486Z" fill="white"/>
</svg>
