<svg width="106" height="106" viewBox="0 0 106 106" fill="none" xmlns="http://www.w3.org/2000/svg">
<rect x="0.67218" y="0.91748" width="104.41" height="104.41" rx="52.2052" stroke="#BD1F17" stroke-width="1.25" stroke-dasharray="4.02 4.02"/>
<path d="M30.5283 21.8V25.4H26.3883V47H22.4283V25.4H18.2883V21.8H30.5283ZM31.9483 27.848C31.9483 25.832 32.4643 24.272 33.4963 23.168C34.5283 22.064 36.0163 21.512 37.9603 21.512C39.9043 21.512 41.3923 22.064 42.4243 23.168C43.4563 24.272 43.9723 25.832 43.9723 27.848V40.952C43.9723 42.968 43.4563 44.528 42.4243 45.632C41.3923 46.736 39.9043 47.288 37.9603 47.288C36.0163 47.288 34.5283 46.736 33.4963 45.632C32.4643 44.528 31.9483 42.968 31.9483 40.952V27.848ZM35.9083 41.204C35.9083 42.86 36.5923 43.688 37.9603 43.688C39.3283 43.688 40.0123 42.86 40.0123 41.204V27.596C40.0123 25.94 39.3283 25.112 37.9603 25.112C36.5923 25.112 35.9083 25.94 35.9083 27.596V41.204ZM52.8098 21.8C54.7778 21.8 56.2538 22.328 57.2378 23.384C58.2218 24.44 58.7138 25.988 58.7138 28.028V40.772C58.7138 42.812 58.2218 44.36 57.2378 45.416C56.2538 46.472 54.7778 47 52.8098 47H46.5458V21.8H52.8098ZM50.5058 43.4H52.7378C53.3858 43.4 53.8778 43.208 54.2138 42.824C54.5738 42.44 54.7538 41.816 54.7538 40.952V27.848C54.7538 26.984 54.5738 26.36 54.2138 25.976C53.8778 25.592 53.3858 25.4 52.7378 25.4H50.5058V43.4ZM70.0259 47L69.3419 42.428H64.4819L63.7979 47H60.1619L64.1939 21.8H69.9899L74.0219 47H70.0259ZM68.8019 39.008L66.8939 26.264L64.9859 39.008H68.8019ZM72.8123 21.8H76.9523L79.9763 33.284L83.0003 21.8H86.7803L81.7763 38.648V47H77.8163V38.648L72.8123 21.8ZM19.1163 63.848C19.1163 61.832 19.6323 60.272 20.6643 59.168C21.6963 58.064 23.1843 57.512 25.1283 57.512C27.0723 57.512 28.5603 58.064 29.5923 59.168C30.6243 60.272 31.1403 61.832 31.1403 63.848V76.952C31.1403 78.968 30.6243 80.528 29.5923 81.632C28.5603 82.736 27.0723 83.288 25.1283 83.288C23.1843 83.288 21.6963 82.736 20.6643 81.632C19.6323 80.528 19.1163 78.968 19.1163 76.952V63.848ZM23.0763 77.204C23.0763 78.86 23.7603 79.688 25.1283 79.688C26.4963 79.688 27.1803 78.86 27.1803 77.204V63.596C27.1803 61.94 26.4963 61.112 25.1283 61.112C23.7603 61.112 23.0763 61.94 23.0763 63.596V77.204ZM42.7857 68.996V72.596H37.6737V83H33.7137V57.8H44.1897V61.4H37.6737V68.996H42.7857ZM55.1607 68.996V72.596H50.0487V83H46.0887V57.8H56.5647V61.4H50.0487V68.996H55.1607ZM67.8597 68.42V72.02H62.4237V79.4H69.2637V83H58.4637V57.8H69.2637V61.4H62.4237V68.42H67.8597ZM79.9976 83C79.8536 82.592 79.7576 82.208 79.7096 81.848C79.6616 81.488 79.6376 80.84 79.6376 79.904V75.944C79.6376 74.792 79.4336 73.976 79.0256 73.496C78.6176 72.992 77.9576 72.74 77.0456 72.74H75.6776V83H71.7176V57.8H77.6936C79.7336 57.8 81.2216 58.28 82.1576 59.24C83.0936 60.176 83.5616 61.628 83.5616 63.596V65.576C83.5616 68.168 82.6976 69.872 80.9696 70.688C81.9056 71.072 82.5776 71.72 82.9856 72.632C83.3936 73.52 83.5976 74.66 83.5976 76.052V79.94C83.5976 80.66 83.6216 81.248 83.6696 81.704C83.7176 82.136 83.8376 82.568 84.0296 83H79.9976ZM75.6776 69.14H77.2256C78.0176 69.14 78.6056 68.936 78.9896 68.528C79.3976 68.12 79.6016 67.436 79.6016 66.476V63.992C79.6016 63.08 79.4336 62.42 79.0976 62.012C78.7856 61.604 78.2816 61.4 77.5856 61.4H75.6776V69.14Z" fill="#0A1425"/>
</svg>
